<svg width="254" height="117" viewBox="0 0 254 117" fill="none" xmlns="http://www.w3.org/2000/svg">
<path opacity="0.9" d="M28.7656 12.0114V10.7685L33.1655 3.81818H34.1449V5.64773H33.5234L30.3764 10.6293V10.7088H36.407V12.0114H28.7656ZM33.593 14V11.6335L33.603 11.0668V3.81818H35.0597V14H33.593ZM41.8658 3.81818V14H40.3246V5.35938H40.2649L37.8288 6.95028V5.47869L40.3693 3.81818H41.8658ZM48.4643 14V3.81818H52.0936C52.8857 3.81818 53.542 3.96236 54.0623 4.25071C54.5827 4.53906 54.9721 4.93347 55.2306 5.43395C55.4892 5.93111 55.6184 6.49124 55.6184 7.11435C55.6184 7.74077 55.4875 8.30421 55.2257 8.80469C54.9672 9.30185 54.5761 9.69626 54.0524 9.98793C53.532 10.2763 52.8774 10.4205 52.0886 10.4205H49.5929V9.1179H51.9494C52.4499 9.1179 52.8559 9.03172 53.1674 8.85938C53.479 8.68371 53.7077 8.44508 53.8535 8.14347C53.9993 7.84186 54.0723 7.49882 54.0723 7.11435C54.0723 6.72988 53.9993 6.38849 53.8535 6.0902C53.7077 5.7919 53.4773 5.55824 53.1625 5.3892C52.8509 5.22017 52.4399 5.13565 51.9295 5.13565H50.0005V14H48.4643ZM57.3001 14V6.36364H58.7866V14H57.3001ZM58.0508 5.18537C57.7923 5.18537 57.5702 5.09919 57.3846 4.92685C57.2023 4.75118 57.1112 4.54238 57.1112 4.30043C57.1112 4.05516 57.2023 3.84635 57.3846 3.67401C57.5702 3.49834 57.7923 3.41051 58.0508 3.41051C58.3093 3.41051 58.5297 3.49834 58.712 3.67401C58.8976 3.84635 58.9904 4.05516 58.9904 4.30043C58.9904 4.54238 58.8976 4.75118 58.712 4.92685C58.5297 5.09919 58.3093 5.18537 58.0508 5.18537ZM62.2729 3.81818V14H60.7864V3.81818H62.2729ZM67.4744 17.0227C66.8679 17.0227 66.3459 16.9432 65.9084 16.7841C65.4742 16.625 65.1196 16.4145 64.8445 16.1527C64.5694 15.8909 64.3639 15.6042 64.228 15.2926L65.5057 14.7656C65.5952 14.9115 65.7145 15.0656 65.8636 15.228C66.0161 15.3937 66.2216 15.5346 66.4801 15.6506C66.742 15.7666 67.0784 15.8246 67.4893 15.8246C68.0528 15.8246 68.5185 15.687 68.8864 15.4119C69.2543 15.1402 69.4382 14.706 69.4382 14.1094V12.608H69.3438C69.2543 12.7704 69.125 12.951 68.956 13.1499C68.7902 13.3487 68.5616 13.5211 68.2699 13.6669C67.9782 13.8127 67.5987 13.8857 67.1314 13.8857C66.5282 13.8857 65.9846 13.7448 65.5007 13.4631C65.0201 13.178 64.639 12.7588 64.3572 12.2053C64.0788 11.6484 63.9396 10.964 63.9396 10.152C63.9396 9.33996 64.0772 8.64394 64.3523 8.06392C64.6307 7.4839 65.0118 7.03977 65.4957 6.73153C65.9796 6.41998 66.5282 6.2642 67.1413 6.2642C67.6153 6.2642 67.9981 6.34375 68.2898 6.50284C68.5814 6.65862 68.8085 6.84091 68.9709 7.04972C69.1366 7.25852 69.2642 7.44247 69.3537 7.60156H69.4631V6.36364H70.9197V14.169C70.9197 14.8253 70.7673 15.3639 70.4624 15.7848C70.1574 16.2057 69.7448 16.5173 69.2244 16.7195C68.7074 16.9216 68.1241 17.0227 67.4744 17.0227ZM67.4595 12.6527C67.8871 12.6527 68.2483 12.5533 68.5433 12.3544C68.8416 12.1522 69.067 11.8639 69.2195 11.4893C69.3752 11.1115 69.4531 10.6591 69.4531 10.1321C69.4531 9.61837 69.3769 9.16596 69.2244 8.77486C69.072 8.38376 68.8482 8.07884 68.5533 7.86009C68.2583 7.63802 67.8937 7.52699 67.4595 7.52699C67.0121 7.52699 66.6392 7.64299 66.3409 7.875C66.0426 8.10369 65.8172 8.41525 65.6648 8.80966C65.5156 9.20407 65.4411 9.64489 65.4411 10.1321C65.4411 10.6326 65.5173 11.0717 65.6697 11.4496C65.8222 11.8274 66.0476 12.1224 66.3459 12.3345C66.6475 12.5466 67.0187 12.6527 67.4595 12.6527ZM72.9134 14V6.36364H74.3501V7.5767H74.4297C74.5689 7.16572 74.8142 6.84257 75.1655 6.60724C75.5201 6.36861 75.9212 6.24929 76.3686 6.24929C76.4614 6.24929 76.5708 6.2526 76.6967 6.25923C76.826 6.26586 76.9271 6.27415 77 6.28409V7.70597C76.9403 7.68939 76.8343 7.67116 76.6818 7.65128C76.5294 7.62808 76.3769 7.61648 76.2244 7.61648C75.8731 7.61648 75.5599 7.69105 75.2848 7.8402C75.013 7.98603 74.7976 8.18987 74.6385 8.4517C74.4794 8.71023 74.3999 9.00521 74.3999 9.33665V14H72.9134ZM78.2864 14V6.36364H79.7132V7.60653H79.8077C79.9668 7.18561 80.227 6.85748 80.5882 6.62216C80.9495 6.38352 81.382 6.2642 81.8858 6.2642C82.3962 6.2642 82.8238 6.38352 83.1685 6.62216C83.5165 6.8608 83.7734 7.18892 83.9391 7.60653H84.0186C84.2009 7.19886 84.4909 6.87405 84.8887 6.6321C85.2864 6.38684 85.7604 6.2642 86.3105 6.2642C87.0033 6.2642 87.5684 6.4813 88.0059 6.91548C88.4467 7.34967 88.6671 8.00426 88.6671 8.87926V14H87.1806V9.01847C87.1806 8.50142 87.0397 8.12689 86.758 7.89489C86.4763 7.66288 86.1399 7.54688 85.7488 7.54688C85.2649 7.54688 84.8887 7.69602 84.6202 7.99432C84.3517 8.2893 84.2175 8.6688 84.2175 9.13281V14H82.736V8.92401C82.736 8.50971 82.6067 8.17661 82.3482 7.92472C82.0897 7.67282 81.7533 7.54688 81.339 7.54688C81.0572 7.54688 80.7971 7.62145 80.5584 7.7706C80.3231 7.91643 80.1325 8.12026 79.9867 8.3821C79.8442 8.64394 79.7729 8.94721 79.7729 9.2919V14H78.2864ZM95.3439 14H93.7132L97.3773 3.81818H99.1522L102.816 14H101.186L98.307 5.66761H98.2275L95.3439 14ZM95.6174 10.0128H100.907V11.3054H95.6174V10.0128ZM109.743 6.36364L106.974 14H105.383L102.609 6.36364H104.205L106.138 12.2401H106.218L108.147 6.36364H109.743ZM114.171 14.1541C113.419 14.1541 112.771 13.9934 112.227 13.6719C111.687 13.3471 111.27 12.8913 110.975 12.3047C110.683 11.7147 110.537 11.0237 110.537 10.2315C110.537 9.44934 110.683 8.75994 110.975 8.16335C111.27 7.56676 111.681 7.10109 112.208 6.76633C112.738 6.43158 113.358 6.2642 114.067 6.2642C114.498 6.2642 114.915 6.33546 115.32 6.47798C115.724 6.6205 116.087 6.84422 116.409 7.14915C116.73 7.45407 116.984 7.85014 117.169 8.33736C117.355 8.82126 117.448 9.40956 117.448 10.1023V10.6293H111.377V9.51562H115.991C115.991 9.12453 115.911 8.77817 115.752 8.47656C115.593 8.17164 115.369 7.93134 115.081 7.75568C114.796 7.58002 114.461 7.49219 114.077 7.49219C113.659 7.49219 113.295 7.59493 112.983 7.80043C112.675 8.0026 112.436 8.26776 112.267 8.59588C112.102 8.92069 112.019 9.27367 112.019 9.65483V10.5249C112.019 11.0353 112.108 11.4695 112.287 11.8274C112.469 12.1854 112.723 12.4588 113.048 12.6477C113.373 12.8333 113.752 12.9261 114.186 12.9261C114.468 12.9261 114.725 12.8864 114.957 12.8068C115.189 12.724 115.389 12.6013 115.558 12.4389C115.727 12.2765 115.857 12.076 115.946 11.8374L117.353 12.0909C117.24 12.5052 117.038 12.8681 116.747 13.1797C116.458 13.4879 116.095 13.7282 115.658 13.9006C115.224 14.0696 114.728 14.1541 114.171 14.1541ZM120.583 9.46591V14H119.097V6.36364H120.524V7.60653H120.618C120.794 7.20218 121.069 6.87737 121.444 6.6321C121.821 6.38684 122.297 6.2642 122.87 6.2642C123.391 6.2642 123.846 6.37358 124.238 6.59233C124.629 6.80777 124.932 7.12926 125.147 7.55682C125.363 7.98437 125.471 8.51302 125.471 9.14276V14H123.984V9.32173C123.984 8.76823 123.84 8.3357 123.551 8.02415C123.263 7.70928 122.867 7.55185 122.363 7.55185C122.019 7.55185 121.712 7.62642 121.444 7.77557C121.178 7.92472 120.968 8.14347 120.812 8.43182C120.66 8.71686 120.583 9.06155 120.583 9.46591ZM132.301 10.8331V6.36364H133.793V14H132.331V12.6776H132.252C132.076 13.0852 131.794 13.425 131.407 13.6967C131.022 13.9652 130.543 14.0994 129.97 14.0994C129.479 14.0994 129.045 13.9917 128.667 13.7763C128.293 13.5575 127.998 13.2344 127.782 12.8068C127.57 12.3793 127.464 11.8506 127.464 11.2209V6.36364H128.951V11.0419C128.951 11.5623 129.095 11.9766 129.383 12.2848C129.672 12.593 130.046 12.7472 130.507 12.7472C130.785 12.7472 131.062 12.6776 131.337 12.5384C131.615 12.3991 131.846 12.1887 132.028 11.907C132.214 11.6252 132.305 11.2673 132.301 10.8331ZM139.081 14.1541C138.329 14.1541 137.681 13.9934 137.138 13.6719C136.597 13.3471 136.18 12.8913 135.885 12.3047C135.593 11.7147 135.447 11.0237 135.447 10.2315C135.447 9.44934 135.593 8.75994 135.885 8.16335C136.18 7.56676 136.591 7.10109 137.118 6.76633C137.648 6.43158 138.268 6.2642 138.977 6.2642C139.408 6.2642 139.826 6.33546 140.23 6.47798C140.634 6.6205 140.997 6.84422 141.319 7.14915C141.64 7.45407 141.894 7.85014 142.079 8.33736C142.265 8.82126 142.358 9.40956 142.358 10.1023V10.6293H136.287V9.51562H140.901C140.901 9.12453 140.822 8.77817 140.662 8.47656C140.503 8.17164 140.28 7.93134 139.991 7.75568C139.706 7.58002 139.372 7.49219 138.987 7.49219C138.569 7.49219 138.205 7.59493 137.893 7.80043C137.585 8.0026 137.346 8.26776 137.177 8.59588C137.012 8.92069 136.929 9.27367 136.929 9.65483V10.5249C136.929 11.0353 137.018 11.4695 137.197 11.8274C137.38 12.1854 137.633 12.4588 137.958 12.6477C138.283 12.8333 138.662 12.9261 139.096 12.9261C139.378 12.9261 139.635 12.8864 139.867 12.8068C140.099 12.724 140.3 12.6013 140.469 12.4389C140.638 12.2765 140.767 12.076 140.856 11.8374L142.263 12.0909C142.151 12.5052 141.948 12.8681 141.657 13.1797C141.368 13.4879 141.006 13.7282 140.568 13.9006C140.134 14.0696 139.638 14.1541 139.081 14.1541ZM145.941 12.608L145.866 13.1499C145.817 13.5476 145.732 13.9619 145.613 14.3928C145.497 14.8269 145.376 15.2296 145.25 15.6009C145.127 15.9721 145.026 16.267 144.947 16.4858H143.893C143.936 16.2803 143.996 16.0019 144.072 15.6506C144.148 15.3026 144.223 14.9131 144.295 14.4822C144.368 14.0514 144.423 13.6122 144.46 13.1648L144.509 12.608H145.941ZM160.157 7.12926H158.606C158.547 6.79782 158.435 6.50615 158.273 6.25426C158.111 6.00237 157.912 5.78859 157.676 5.61293C157.441 5.43726 157.178 5.30469 156.886 5.2152C156.598 5.12571 156.291 5.08097 155.966 5.08097C155.38 5.08097 154.854 5.22846 154.39 5.52344C153.93 5.81842 153.565 6.25095 153.297 6.82102C153.031 7.3911 152.899 8.08712 152.899 8.90909C152.899 9.73769 153.031 10.437 153.297 11.0071C153.565 11.5772 153.931 12.008 154.395 12.2997C154.859 12.5914 155.381 12.7372 155.961 12.7372C156.283 12.7372 156.588 12.6941 156.876 12.608C157.168 12.5185 157.431 12.3875 157.667 12.2152C157.902 12.0429 158.101 11.8324 158.263 11.5838C158.429 11.3319 158.543 11.0436 158.606 10.7188L160.157 10.7237C160.074 11.2242 159.914 11.6849 159.675 12.1058C159.44 12.5234 159.136 12.8847 158.765 13.1896C158.397 13.4912 157.976 13.7249 157.502 13.8906C157.029 14.0563 156.511 14.1392 155.951 14.1392C155.07 14.1392 154.284 13.9304 153.595 13.5128C152.905 13.0919 152.362 12.4903 151.964 11.7081C151.57 10.9259 151.373 9.9929 151.373 8.90909C151.373 7.82197 151.571 6.88897 151.969 6.11008C152.367 5.32789 152.91 4.72798 153.6 4.31037C154.289 3.88944 155.073 3.67898 155.951 3.67898C156.492 3.67898 156.995 3.75687 157.463 3.91264C157.933 4.0651 158.356 4.29048 158.73 4.58878C159.105 4.88376 159.415 5.24503 159.66 5.67258C159.905 6.09683 160.071 6.58239 160.157 7.12926ZM163.363 9.46591V14H161.876V3.81818H163.343V7.60653H163.437C163.616 7.19555 163.89 6.86908 164.258 6.62713C164.626 6.38518 165.106 6.2642 165.699 6.2642C166.223 6.2642 166.68 6.37192 167.072 6.58736C167.466 6.80279 167.771 7.12429 167.986 7.55185C168.205 7.97609 168.314 8.50639 168.314 9.14276V14H166.828V9.32173C166.828 8.7616 166.684 8.32741 166.395 8.01918C166.107 7.70762 165.706 7.55185 165.192 7.55185C164.841 7.55185 164.526 7.62642 164.248 7.77557C163.973 7.92472 163.756 8.14347 163.596 8.43182C163.441 8.71686 163.363 9.06155 163.363 9.46591ZM173.589 14.1541C172.837 14.1541 172.189 13.9934 171.645 13.6719C171.105 13.3471 170.688 12.8913 170.393 12.3047C170.101 11.7147 169.955 11.0237 169.955 10.2315C169.955 9.44934 170.101 8.75994 170.393 8.16335C170.688 7.56676 171.099 7.10109 171.626 6.76633C172.156 6.43158 172.776 6.2642 173.485 6.2642C173.916 6.2642 174.333 6.33546 174.738 6.47798C175.142 6.6205 175.505 6.84422 175.827 7.14915C176.148 7.45407 176.402 7.85014 176.587 8.33736C176.773 8.82126 176.866 9.40956 176.866 10.1023V10.6293H170.795V9.51562H175.409C175.409 9.12453 175.329 8.77817 175.17 8.47656C175.011 8.17164 174.787 7.93134 174.499 7.75568C174.214 7.58002 173.879 7.49219 173.495 7.49219C173.077 7.49219 172.713 7.59493 172.401 7.80043C172.093 8.0026 171.854 8.26776 171.685 8.59588C171.519 8.92069 171.437 9.27367 171.437 9.65483V10.5249C171.437 11.0353 171.526 11.4695 171.705 11.8274C171.887 12.1854 172.141 12.4588 172.466 12.6477C172.791 12.8333 173.17 12.9261 173.604 12.9261C173.886 12.9261 174.143 12.8864 174.375 12.8068C174.607 12.724 174.807 12.6013 174.976 12.4389C175.145 12.2765 175.275 12.076 175.364 11.8374L176.771 12.0909C176.658 12.5052 176.456 12.8681 176.165 13.1797C175.876 13.4879 175.513 13.7282 175.076 13.9006C174.642 14.0696 174.146 14.1541 173.589 14.1541ZM184.829 6.36364L182.06 14H180.469L177.695 6.36364H179.29L181.224 12.2401H181.304L183.233 6.36364H184.829ZM187.165 16.8636C186.943 16.8636 186.741 16.8454 186.559 16.8089C186.377 16.7758 186.241 16.7393 186.151 16.6996L186.509 15.4815C186.781 15.5545 187.023 15.5859 187.235 15.576C187.447 15.5661 187.634 15.4865 187.797 15.3374C187.963 15.1882 188.108 14.9446 188.234 14.6065L188.418 14.0994L185.624 6.36364H187.215L189.149 12.2898H189.229L191.163 6.36364H192.759L189.612 15.0192C189.466 15.4169 189.28 15.7533 189.055 16.0284C188.829 16.3068 188.561 16.5156 188.249 16.6548C187.938 16.794 187.576 16.8636 187.165 16.8636ZM206.437 7.12926H204.885C204.826 6.79782 204.715 6.50615 204.552 6.25426C204.39 6.00237 204.191 5.78859 203.956 5.61293C203.72 5.43726 203.457 5.30469 203.165 5.2152C202.877 5.12571 202.57 5.08097 202.246 5.08097C201.659 5.08097 201.134 5.22846 200.67 5.52344C200.209 5.81842 199.844 6.25095 199.576 6.82102C199.311 7.3911 199.178 8.08712 199.178 8.90909C199.178 9.73769 199.311 10.437 199.576 11.0071C199.844 11.5772 200.211 12.008 200.675 12.2997C201.139 12.5914 201.661 12.7372 202.241 12.7372C202.562 12.7372 202.867 12.6941 203.155 12.608C203.447 12.5185 203.711 12.3875 203.946 12.2152C204.181 12.0429 204.38 11.8324 204.542 11.5838C204.708 11.3319 204.823 11.0436 204.885 10.7188L206.437 10.7237C206.354 11.2242 206.193 11.6849 205.954 12.1058C205.719 12.5234 205.416 12.8847 205.045 13.1896C204.677 13.4912 204.256 13.7249 203.782 13.8906C203.308 14.0563 202.791 14.1392 202.231 14.1392C201.349 14.1392 200.564 13.9304 199.874 13.5128C199.185 13.0919 198.641 12.4903 198.243 11.7081C197.849 10.9259 197.652 9.9929 197.652 8.90909C197.652 7.82197 197.851 6.88897 198.248 6.11008C198.646 5.32789 199.19 4.72798 199.879 4.31037C200.568 3.88944 201.352 3.67898 202.231 3.67898C202.771 3.67898 203.275 3.75687 203.742 3.91264C204.213 4.0651 204.635 4.29048 205.01 4.58878C205.384 4.88376 205.694 5.24503 205.939 5.67258C206.185 6.09683 206.35 6.58239 206.437 7.12926ZM209.642 9.46591V14H208.156V3.81818H209.622V7.60653H209.717C209.896 7.19555 210.169 6.86908 210.537 6.62713C210.905 6.38518 211.385 6.2642 211.979 6.2642C212.502 6.2642 212.96 6.37192 213.351 6.58736C213.745 6.80279 214.05 7.12429 214.266 7.55185C214.484 7.97609 214.594 8.50639 214.594 9.14276V14H213.107V9.32173C213.107 8.7616 212.963 8.32741 212.675 8.01918C212.386 7.70762 211.985 7.55185 211.472 7.55185C211.12 7.55185 210.805 7.62642 210.527 7.77557C210.252 7.92472 210.035 8.14347 209.876 8.43182C209.72 8.71686 209.642 9.06155 209.642 9.46591ZM218.8 14.169C218.316 14.169 217.878 14.0795 217.487 13.9006C217.096 13.7183 216.786 13.4548 216.558 13.1101C216.332 12.7654 216.219 12.3428 216.219 11.8423C216.219 11.4115 216.302 11.0568 216.468 10.7784C216.634 10.5 216.857 10.2796 217.139 10.1172C217.421 9.95478 217.736 9.83215 218.084 9.74929C218.432 9.66643 218.786 9.60346 219.148 9.56037C219.605 9.50734 219.976 9.46425 220.261 9.43111C220.546 9.39465 220.754 9.33665 220.883 9.2571C221.012 9.17756 221.077 9.0483 221.077 8.86932V8.83452C221.077 8.40033 220.954 8.06392 220.709 7.82528C220.467 7.58665 220.106 7.46733 219.625 7.46733C219.125 7.46733 218.73 7.57836 218.442 7.80043C218.157 8.01918 217.96 8.26278 217.85 8.53125L216.453 8.21307C216.619 7.74905 216.861 7.37453 217.179 7.08949C217.5 6.80114 217.87 6.59233 218.288 6.46307C218.705 6.33049 219.144 6.2642 219.605 6.2642C219.91 6.2642 220.233 6.30066 220.575 6.37358C220.919 6.44318 221.241 6.57244 221.539 6.76136C221.841 6.95028 222.088 7.22041 222.28 7.57173C222.472 7.91974 222.568 8.37216 222.568 8.92898V14H221.116V12.956H221.057C220.961 13.1482 220.817 13.3371 220.624 13.5227C220.432 13.7083 220.185 13.8625 219.884 13.9851C219.582 14.1077 219.221 14.169 218.8 14.169ZM219.123 12.9759C219.534 12.9759 219.885 12.8946 220.177 12.7322C220.472 12.5698 220.696 12.3577 220.848 12.0959C221.004 11.8307 221.082 11.5473 221.082 11.2457V10.2614C221.029 10.3144 220.926 10.3641 220.773 10.4105C220.624 10.4536 220.454 10.4917 220.261 10.5249C220.069 10.5547 219.882 10.5829 219.7 10.6094C219.517 10.6326 219.365 10.6525 219.242 10.669C218.954 10.7055 218.69 10.7668 218.452 10.853C218.216 10.9392 218.027 11.0634 217.885 11.2259C217.746 11.3849 217.676 11.5971 217.676 11.8622C217.676 12.2301 217.812 12.5085 218.084 12.6974C218.356 12.883 218.702 12.9759 219.123 12.9759ZM230.27 8.22798L228.923 8.46662C228.867 8.29427 228.777 8.13021 228.655 7.97443C228.535 7.81865 228.373 7.69105 228.167 7.59162C227.962 7.49219 227.705 7.44247 227.397 7.44247C226.976 7.44247 226.625 7.53693 226.343 7.72585C226.061 7.91146 225.92 8.15175 225.92 8.44673C225.92 8.70194 226.015 8.90743 226.204 9.06321C226.393 9.21899 226.698 9.34659 227.118 9.44602L228.331 9.72443C229.034 9.88684 229.558 10.1371 229.903 10.4751C230.247 10.8132 230.42 11.2524 230.42 11.7926C230.42 12.25 230.287 12.6577 230.022 13.0156C229.76 13.3703 229.394 13.6487 228.923 13.8509C228.456 14.053 227.914 14.1541 227.297 14.1541C226.442 14.1541 225.745 13.9718 225.204 13.6072C224.664 13.2393 224.333 12.7173 224.21 12.0412L225.647 11.8224C225.736 12.197 225.92 12.4804 226.199 12.6726C226.477 12.8615 226.84 12.956 227.287 12.956C227.775 12.956 228.164 12.8549 228.456 12.6527C228.747 12.4472 228.893 12.197 228.893 11.902C228.893 11.6634 228.804 11.4628 228.625 11.3004C228.449 11.138 228.179 11.0154 227.814 10.9325L226.522 10.6491C225.809 10.4867 225.282 10.2282 224.941 9.87358C224.603 9.51894 224.434 9.06984 224.434 8.52628C224.434 8.07552 224.56 7.68111 224.812 7.34304C225.064 7.00497 225.412 6.74148 225.856 6.55256C226.3 6.36032 226.809 6.2642 227.382 6.2642C228.207 6.2642 228.857 6.44318 229.331 6.80114C229.805 7.15578 230.118 7.63139 230.27 8.22798ZM235.345 14.1541C234.593 14.1541 233.945 13.9934 233.401 13.6719C232.861 13.3471 232.443 12.8913 232.148 12.3047C231.857 11.7147 231.711 11.0237 231.711 10.2315C231.711 9.44934 231.857 8.75994 232.148 8.16335C232.443 7.56676 232.854 7.10109 233.381 6.76633C233.912 6.43158 234.531 6.2642 235.241 6.2642C235.672 6.2642 236.089 6.33546 236.494 6.47798C236.898 6.6205 237.261 6.84422 237.582 7.14915C237.904 7.45407 238.157 7.85014 238.343 8.33736C238.529 8.82126 238.621 9.40956 238.621 10.1023V10.6293H232.551V9.51562H237.165C237.165 9.12453 237.085 8.77817 236.926 8.47656C236.767 8.17164 236.543 7.93134 236.255 7.75568C235.97 7.58002 235.635 7.49219 235.251 7.49219C234.833 7.49219 234.469 7.59493 234.157 7.80043C233.849 8.0026 233.61 8.26776 233.441 8.59588C233.275 8.92069 233.192 9.27367 233.192 9.65483V10.5249C233.192 11.0353 233.282 11.4695 233.461 11.8274C233.643 12.1854 233.897 12.4588 234.222 12.6477C234.546 12.8333 234.926 12.9261 235.36 12.9261C235.642 12.9261 235.899 12.8864 236.131 12.8068C236.363 12.724 236.563 12.6013 236.732 12.4389C236.901 12.2765 237.031 12.076 237.12 11.8374L238.527 12.0909C238.414 12.5052 238.212 12.8681 237.92 13.1797C237.632 13.4879 237.269 13.7282 236.832 13.9006C236.397 14.0696 235.902 14.1541 235.345 14.1541ZM242.205 12.608L242.13 13.1499C242.08 13.5476 241.996 13.9619 241.877 14.3928C241.761 14.8269 241.64 15.2296 241.514 15.6009C241.391 15.9721 241.29 16.267 241.21 16.4858H240.156C240.2 16.2803 240.259 16.0019 240.335 15.6506C240.412 15.3026 240.486 14.9131 240.559 14.4822C240.632 14.0514 240.687 13.6122 240.723 13.1648L240.773 12.608H242.205ZM29.1186 20.8182H30.983L34.2244 28.733H34.3438L37.5852 20.8182H39.4496V31H37.9879V23.6321H37.8935L34.8906 30.9851H33.6776L30.6747 23.6271H30.5803V31H29.1186V20.8182ZM44.4224 31.1491C43.8059 31.1491 43.2557 30.9917 42.7718 30.6768C42.2913 30.3587 41.9134 29.9062 41.6383 29.3196C41.3665 28.7296 41.2306 28.022 41.2306 27.1967C41.2306 26.3714 41.3682 25.6655 41.6433 25.0788C41.9217 24.4922 42.3029 24.0431 42.7868 23.7315C43.2707 23.42 43.8192 23.2642 44.4324 23.2642C44.9063 23.2642 45.2875 23.3438 45.5758 23.5028C45.8675 23.6586 46.0929 23.8409 46.252 24.0497C46.4144 24.2585 46.5403 24.4425 46.6298 24.6016H46.7193V20.8182H48.2058V31H46.7541V29.8118H46.6298C46.5403 29.9742 46.411 30.1598 46.242 30.3686C46.0763 30.5774 45.8476 30.7597 45.5559 30.9155C45.2643 31.0713 44.8864 31.1491 44.4224 31.1491ZM44.7505 29.8814C45.1781 29.8814 45.5394 29.7687 45.8343 29.5433C46.1326 29.3146 46.358 28.9981 46.5105 28.5938C46.6663 28.1894 46.7441 27.7187 46.7441 27.1818C46.7441 26.6515 46.6679 26.1875 46.5154 25.7898C46.363 25.392 46.1393 25.0821 45.8443 24.8601C45.5493 24.638 45.1847 24.527 44.7505 24.527C44.3031 24.527 43.9302 24.643 43.6319 24.875C43.3336 25.107 43.1083 25.4235 42.9558 25.8246C42.8066 26.2256 42.7321 26.678 42.7321 27.1818C42.7321 27.6922 42.8083 28.1513 42.9608 28.5589C43.1132 28.9666 43.3386 29.2898 43.6369 29.5284C43.9385 29.7637 44.3097 29.8814 44.7505 29.8814ZM54.0126 31V29.8864L57.4579 26.3168C57.8258 25.929 58.1291 25.5893 58.3677 25.2976C58.6097 25.0026 58.7903 24.7225 58.9096 24.4574C59.0289 24.1922 59.0886 23.9105 59.0886 23.6122C59.0886 23.2741 59.0091 22.9825 58.85 22.7372C58.6909 22.4886 58.4738 22.2981 58.1987 22.1655C57.9236 22.0296 57.6137 21.9616 57.269 21.9616C56.9044 21.9616 56.5862 22.0362 56.3145 22.1854C56.0427 22.3345 55.8339 22.545 55.688 22.8168C55.5422 23.0885 55.4693 23.4067 55.4693 23.7713H54.0027C54.0027 23.1515 54.1452 22.6096 54.4302 22.1456C54.7153 21.6816 55.1064 21.322 55.6035 21.0668C56.1007 20.8082 56.6658 20.679 57.2988 20.679C57.9385 20.679 58.502 20.8066 58.9892 21.0618C59.4797 21.3137 59.8625 21.6584 60.1376 22.0959C60.4127 22.5301 60.5502 23.0206 60.5502 23.5675C60.5502 23.9453 60.479 24.3149 60.3365 24.6761C60.1973 25.0374 59.9537 25.4401 59.6056 25.8842C59.2576 26.325 58.7737 26.8603 58.1539 27.4901L56.1305 29.608V29.6825H60.7143V31H54.0126ZM66.1433 31.169C65.3578 31.1657 64.6866 30.9586 64.1298 30.5476C63.573 30.1366 63.1471 29.5384 62.8521 28.7528C62.5571 27.9673 62.4096 27.0211 62.4096 25.9141C62.4096 24.8104 62.5571 23.8674 62.8521 23.0852C63.1504 22.303 63.5779 21.7064 64.1348 21.2955C64.6949 20.8845 65.3644 20.679 66.1433 20.679C66.9222 20.679 67.59 20.8861 68.1468 21.3004C68.7037 21.7114 69.1296 22.308 69.4245 23.0902C69.7228 23.8691 69.872 24.8104 69.872 25.9141C69.872 27.0244 69.7245 27.9723 69.4295 28.7578C69.1345 29.54 68.7086 30.1383 68.1518 30.5526C67.595 30.9635 66.9255 31.169 66.1433 31.169ZM66.1433 29.8416C66.8327 29.8416 67.3713 29.5052 67.7591 28.8324C68.1502 28.1596 68.3457 27.1868 68.3457 25.9141C68.3457 25.0689 68.2562 24.3546 68.0772 23.7713C67.9016 23.1847 67.648 22.7405 67.3166 22.4389C66.9885 22.134 66.5974 21.9815 66.1433 21.9815C65.4572 21.9815 64.9186 22.3196 64.5275 22.9957C64.1364 23.6719 63.9392 24.6446 63.9359 25.9141C63.9359 26.7625 64.0237 27.4801 64.1994 28.0668C64.3784 28.6501 64.6319 29.0926 64.96 29.3942C65.2882 29.6925 65.6826 29.8416 66.1433 29.8416ZM75.076 31.1392C74.3634 31.1392 73.7337 31.0166 73.1868 30.7713C72.6432 30.526 72.2173 30.188 71.9091 29.7571C71.6009 29.3262 71.4484 28.8357 71.4517 28.2855C71.4484 27.8546 71.5362 27.4586 71.7152 27.0973C71.8975 26.7327 72.1444 26.4295 72.456 26.1875C72.7675 25.9422 73.1155 25.7865 73.5 25.7202V25.6605C72.9929 25.5379 72.5869 25.2661 72.282 24.8452C71.977 24.4242 71.8262 23.9403 71.8295 23.3935C71.8262 22.8731 71.9638 22.4091 72.2422 22.0014C72.5239 21.5904 72.91 21.2673 73.4006 21.032C73.8911 20.7966 74.4496 20.679 75.076 20.679C75.6958 20.679 76.2493 20.7983 76.7365 21.0369C77.227 21.2723 77.6132 21.5954 77.8949 22.0064C78.1766 22.4141 78.3191 22.8764 78.3224 23.3935C78.3191 23.9403 78.1634 24.4242 77.8551 24.8452C77.5469 25.2661 77.1458 25.5379 76.652 25.6605V25.7202C77.0331 25.7865 77.3762 25.9422 77.6811 26.1875C77.9893 26.4295 78.2346 26.7327 78.4169 27.0973C78.6025 27.4586 78.697 27.8546 78.7003 28.2855C78.697 28.8357 78.5412 29.3262 78.233 29.7571C77.9247 30.188 77.4972 30.526 76.9503 30.7713C76.4067 31.0166 75.782 31.1392 75.076 31.1392ZM75.076 29.8814C75.4969 29.8814 75.8615 29.8118 76.1697 29.6726C76.478 29.5301 76.7166 29.3329 76.8857 29.081C77.0547 28.8258 77.1409 28.5275 77.1442 28.1861C77.1409 27.8314 77.0481 27.5182 76.8658 27.2464C76.6868 26.9747 76.4432 26.7609 76.1349 26.6051C75.8267 26.4493 75.4737 26.3714 75.076 26.3714C74.675 26.3714 74.3187 26.4493 74.0071 26.6051C73.6955 26.7609 73.4503 26.9747 73.2713 27.2464C73.0923 27.5182 73.0045 27.8314 73.0078 28.1861C73.0045 28.5275 73.0857 28.8258 73.2514 29.081C73.4205 29.3329 73.6607 29.5301 73.9723 29.6726C74.2839 29.8118 74.6518 29.8814 75.076 29.8814ZM75.076 25.1435C75.4141 25.1435 75.714 25.0755 75.9759 24.9396C76.2377 24.8037 76.4432 24.6148 76.5923 24.3729C76.7448 24.1309 76.8227 23.8475 76.826 23.5227C76.8227 23.2045 76.7464 22.9261 76.5973 22.6875C76.4515 22.4489 76.2476 22.2649 75.9858 22.1357C75.724 22.0031 75.4207 21.9368 75.076 21.9368C74.7247 21.9368 74.4164 22.0031 74.1513 22.1357C73.8894 22.2649 73.6856 22.4489 73.5398 22.6875C73.3939 22.9261 73.3227 23.2045 73.326 23.5227C73.3227 23.8475 73.3956 24.1309 73.5447 24.3729C73.6939 24.6148 73.8994 24.8037 74.1612 24.9396C74.4264 25.0755 74.7313 25.1435 75.076 25.1435ZM84.3443 20.8182V31H82.8031V22.3594H82.7434L80.3074 23.9503V22.4787L82.8478 20.8182H84.3443ZM90.4593 31.1392C89.8362 31.1392 89.2761 31.0199 88.7789 30.7812C88.2851 30.5393 87.8907 30.2079 87.5957 29.7869C87.3007 29.366 87.1433 28.8854 87.1234 28.3452H88.6149C88.6513 28.7827 88.8452 29.1423 89.1966 29.424C89.5479 29.7057 89.9688 29.8466 90.4593 29.8466C90.8504 29.8466 91.1968 29.7571 91.4984 29.5781C91.8033 29.3958 92.042 29.1456 92.2143 28.8274C92.39 28.5092 92.4778 28.1463 92.4778 27.7386C92.4778 27.3243 92.3883 26.9548 92.2093 26.63C92.0304 26.3052 91.7834 26.05 91.4686 25.8643C91.157 25.6787 90.7991 25.5843 90.3947 25.581C90.0865 25.581 89.7766 25.634 89.465 25.7401C89.1535 25.8461 88.9016 25.9853 88.7093 26.1577L87.3024 25.9489L87.8741 20.8182H93.4721V22.1357H89.1518L88.8287 24.9844H88.8883C89.0872 24.7921 89.3507 24.6314 89.6788 24.5021C90.0102 24.3729 90.3649 24.3082 90.7427 24.3082C91.3625 24.3082 91.9144 24.4557 92.3983 24.7507C92.8855 25.0457 93.2683 25.4484 93.5467 25.9588C93.8284 26.4659 93.9676 27.0492 93.9643 27.7088C93.9676 28.3684 93.8185 28.9567 93.5169 29.4737C93.2186 29.9908 92.8043 30.3984 92.274 30.6967C91.747 30.9917 91.1421 31.1392 90.4593 31.1392Z" fill="#555C68"/>
<path d="M7.9987 13.9999C7.15666 13.2816 6.37616 12.4942 5.66537 11.6459C4.5987 10.3719 3.33203 8.47457 3.33203 6.66656C3.33157 5.74321 3.60504 4.84046 4.11783 4.07258C4.63062 3.3047 5.35968 2.7062 6.21274 2.35283C7.06581 1.99946 8.00453 1.90709 8.91011 2.08743C9.81569 2.26776 10.6474 2.71269 11.3 3.3659C11.7345 3.79847 12.0789 4.31292 12.3133 4.87948C12.5476 5.44604 12.6673 6.05345 12.6654 6.66656C12.6654 8.47457 11.3987 10.3719 10.332 11.6459C9.62123 12.4942 8.84074 13.2816 7.9987 13.9999ZM7.9987 4.66657C7.46827 4.66657 6.95956 4.87728 6.58448 5.25235C6.20941 5.62742 5.9987 6.13613 5.9987 6.66656C5.9987 7.197 6.20941 7.70571 6.58448 8.08078C6.95956 8.45585 7.46827 8.66656 7.9987 8.66656C8.52913 8.66656 9.03784 8.45585 9.41291 8.08078C9.78799 7.70571 9.9987 7.197 9.9987 6.66656C9.9987 6.13613 9.78799 5.62742 9.41291 5.25235C9.03784 4.87728 8.52913 4.66657 7.9987 4.66657Z" fill="#101C26"/>
<path d="M4.60004 60.4004L5.70689 60.0667C6.07219 59.9567 6.46502 59.9834 6.8121 60.1418C7.15917 60.3001 7.4368 60.5793 7.59318 60.9273L8.36918 62.653C8.50386 62.9524 8.5414 63.2864 8.47653 63.6082C8.41165 63.93 8.24762 64.2234 8.00746 64.4473L6.82632 65.5478C6.66804 65.6981 6.78804 66.2838 7.36632 67.2861C7.94518 68.289 8.39261 68.6856 8.59889 68.6238L10.1463 68.1507C10.46 68.0548 10.7958 68.0594 11.1067 68.1639C11.4176 68.2684 11.688 68.4676 11.88 68.7336L12.9829 70.2621C13.2057 70.5708 13.3088 70.9498 13.2732 71.3288C13.2375 71.7078 13.0656 72.061 12.7892 72.3227L11.9366 73.1301C11.6614 73.3908 11.3219 73.5737 10.9529 73.6604C10.5839 73.747 10.1985 73.7342 9.83604 73.6233C8.04975 73.0764 6.39546 71.4536 4.85089 68.7776C3.30289 66.0976 2.71832 63.837 3.12575 61.9901C3.20793 61.618 3.38786 61.2745 3.64701 60.9951C3.90615 60.7156 4.23513 60.5104 4.60004 60.4004Z" fill="#101C26"/>
<path opacity="0.9" d="M31.9922 70.2898V63.5682H33.3295V70.2898H31.9922ZM29.3026 67.5952V66.2628H36.0241V67.5952H29.3026ZM41.8484 72.169C41.0629 72.1657 40.3917 71.9586 39.8349 71.5476C39.2781 71.1366 38.8522 70.5384 38.5572 69.7528C38.2622 68.9673 38.1147 68.0211 38.1147 66.9141C38.1147 65.8104 38.2622 64.8674 38.5572 64.0852C38.8555 63.303 39.283 62.7064 39.8398 62.2955C40.4 61.8845 41.0695 61.679 41.8484 61.679C42.6272 61.679 43.2951 61.8861 43.8519 62.3004C44.4087 62.7114 44.8346 63.308 45.1296 64.0902C45.4279 64.8691 45.5771 65.8104 45.5771 66.9141C45.5771 68.0244 45.4296 68.9723 45.1346 69.7578C44.8396 70.54 44.4137 71.1383 43.8569 71.5526C43.3001 71.9635 42.6306 72.169 41.8484 72.169ZM41.8484 70.8416C42.5378 70.8416 43.0763 70.5052 43.4641 69.8324C43.8552 69.1596 44.0508 68.1868 44.0508 66.9141C44.0508 66.0689 43.9613 65.3546 43.7823 64.7713C43.6067 64.1847 43.3531 63.7405 43.0217 63.4389C42.6935 63.134 42.3024 62.9815 41.8484 62.9815C41.1623 62.9815 40.6237 63.3196 40.2326 63.9957C39.8415 64.6719 39.6443 65.6446 39.641 66.9141C39.641 67.7625 39.7288 68.4801 39.9045 69.0668C40.0835 69.6501 40.337 70.0926 40.6651 70.3942C40.9933 70.6925 41.3877 70.8416 41.8484 70.8416ZM51.2037 61.8182V72H49.6625V63.3594H49.6028L47.1667 64.9503V63.4787L49.7072 61.8182H51.2037ZM53.9579 72V70.8864L57.4032 67.3168C57.7711 66.929 58.0744 66.5893 58.313 66.2976C58.555 66.0026 58.7356 65.7225 58.8549 65.4574C58.9743 65.1922 59.0339 64.9105 59.0339 64.6122C59.0339 64.2741 58.9544 63.9825 58.7953 63.7372C58.6362 63.4886 58.4191 63.2981 58.144 63.1655C57.8689 63.0296 57.559 62.9616 57.2143 62.9616C56.8497 62.9616 56.5315 63.0362 56.2598 63.1854C55.988 63.3345 55.7792 63.545 55.6333 63.8168C55.4875 64.0885 55.4146 64.4067 55.4146 64.7713H53.948C53.948 64.1515 54.0905 63.6096 54.3755 63.1456C54.6606 62.6816 55.0517 62.322 55.5488 62.0668C56.046 61.8082 56.6111 61.679 57.2441 61.679C57.8838 61.679 58.4473 61.8066 58.9345 62.0618C59.425 62.3137 59.8078 62.6584 60.0829 63.0959C60.358 63.5301 60.4956 64.0206 60.4956 64.5675C60.4956 64.9453 60.4243 65.3149 60.2818 65.6761C60.1426 66.0374 59.899 66.4401 59.551 66.8842C59.2029 67.325 58.719 67.8603 58.0993 68.4901L56.0758 70.608V70.6825H60.6596V72H53.9579ZM66.0886 72.1392C65.4058 72.1392 64.796 72.0215 64.2591 71.7862C63.7254 71.5509 63.3029 71.2244 62.9913 70.8068C62.6831 70.3859 62.5173 69.8987 62.4941 69.3452H64.0552C64.0751 69.6468 64.1762 69.9086 64.3585 70.1307C64.5441 70.3494 64.786 70.5185 65.0843 70.6378C65.3826 70.7571 65.7141 70.8168 66.0787 70.8168C66.4797 70.8168 66.8343 70.7472 67.1426 70.608C67.4541 70.4687 67.6977 70.2749 67.8734 70.0263C68.0491 69.7744 68.1369 69.4844 68.1369 69.1562C68.1369 68.8149 68.0491 68.5149 67.8734 68.2564C67.7011 67.9946 67.4475 67.7891 67.1127 67.6399C66.7813 67.4908 66.3803 67.4162 65.9096 67.4162H65.0495V66.1634H65.9096C66.2875 66.1634 66.6189 66.0954 66.9039 65.9595C67.1923 65.8236 67.4177 65.6347 67.5801 65.3928C67.7425 65.1475 67.8237 64.8608 67.8237 64.5327C67.8237 64.2178 67.7524 63.9444 67.6099 63.7124C67.4707 63.477 67.2718 63.2931 67.0133 63.1605C66.7581 63.0279 66.4565 62.9616 66.1085 62.9616C65.777 62.9616 65.4672 63.023 65.1788 63.1456C64.8938 63.2649 64.6618 63.4373 64.4828 63.6626C64.3038 63.8847 64.2077 64.1515 64.1944 64.4631H62.7079C62.7245 63.9129 62.8869 63.429 63.1951 63.0114C63.5067 62.5937 63.9177 62.2673 64.4281 62.032C64.9385 61.7966 65.5053 61.679 66.1284 61.679C66.7813 61.679 67.3448 61.8066 67.8187 62.0618C68.296 62.3137 68.6639 62.6501 68.9224 63.071C69.1842 63.492 69.3135 63.9527 69.3102 64.4531C69.3135 65.0232 69.1544 65.5071 68.8329 65.9048C68.5147 66.3026 68.0905 66.5694 67.5602 66.7053V66.7848C68.2363 66.8875 68.76 67.156 69.1312 67.5902C69.5057 68.0244 69.6913 68.563 69.688 69.206C69.6913 69.7661 69.5356 70.2682 69.2207 70.7124C68.9092 71.1565 68.4833 71.5062 67.943 71.7614C67.4028 72.0133 66.7846 72.1392 66.0886 72.1392ZM71.3535 70.0114V68.7685L75.7534 61.8182H76.7328V63.6477H76.1113L72.9643 68.6293V68.7088H78.9949V70.0114H71.3535ZM76.1809 72V69.6335L76.1909 69.0668V61.8182H77.6475V72H76.1809ZM87.7933 72.1392C87.1702 72.1392 86.6101 72.0199 86.1129 71.7812C85.6191 71.5393 85.2247 71.2079 84.9297 70.7869C84.6347 70.366 84.4773 69.8854 84.4574 69.3452H85.9489C85.9853 69.7827 86.1792 70.1423 86.5305 70.424C86.8819 70.7057 87.3028 70.8466 87.7933 70.8466C88.1844 70.8466 88.5308 70.7571 88.8324 70.5781C89.1373 70.3958 89.3759 70.1456 89.5483 69.8274C89.724 69.5092 89.8118 69.1463 89.8118 68.7386C89.8118 68.3243 89.7223 67.9548 89.5433 67.63C89.3643 67.3052 89.1174 67.05 88.8026 66.8643C88.491 66.6787 88.133 66.5843 87.7287 66.581C87.4205 66.581 87.1106 66.634 86.799 66.7401C86.4875 66.8461 86.2356 66.9853 86.0433 67.1577L84.6364 66.9489L85.2081 61.8182H90.8061V63.1357H86.4858L86.1626 65.9844H86.2223C86.4212 65.7921 86.6847 65.6314 87.0128 65.5021C87.3442 65.3729 87.6989 65.3082 88.0767 65.3082C88.6965 65.3082 89.2483 65.4557 89.7322 65.7507C90.2195 66.0457 90.6023 66.4484 90.8807 66.9588C91.1624 67.4659 91.3016 68.0492 91.2983 68.7088C91.3016 69.3684 91.1525 69.9567 90.8509 70.4737C90.5526 70.9908 90.1383 71.3984 89.608 71.6967C89.081 71.9917 88.4761 72.1392 87.7933 72.1392ZM96.6689 72.1392C96.2148 72.1326 95.7673 72.0497 95.3265 71.8906C94.889 71.7315 94.4913 71.4664 94.1333 71.0952C93.7754 70.724 93.4887 70.2251 93.2733 69.5987C93.0611 68.9723 92.9551 68.1901 92.9551 67.2521C92.9551 66.3639 93.0429 65.575 93.2186 64.8857C93.3975 64.1963 93.6544 63.6146 93.9892 63.1406C94.3239 62.6634 94.7283 62.3004 95.2022 62.0518C95.6762 61.8033 96.2082 61.679 96.7981 61.679C97.4047 61.679 97.9432 61.7983 98.4139 62.0369C98.8845 62.2756 99.2657 62.6054 99.5574 63.0263C99.8523 63.4472 100.04 63.9261 100.119 64.4631H98.6028C98.5001 64.0388 98.2962 63.6925 97.9913 63.424C97.6864 63.1555 97.2886 63.0213 96.7981 63.0213C96.0524 63.0213 95.4707 63.3461 95.0531 63.9957C94.6388 64.6454 94.43 65.5485 94.4267 66.7053H94.5012C94.6769 66.4169 94.8923 66.1716 95.1475 65.9695C95.4061 65.764 95.6944 65.6065 96.0126 65.4972C96.3341 65.3845 96.6722 65.3281 97.0268 65.3281C97.6168 65.3281 98.1504 65.4723 98.6277 65.7607C99.1083 66.0457 99.4911 66.4401 99.7761 66.9439C100.061 67.4477 100.204 68.0244 100.204 68.674C100.204 69.3236 100.056 69.9119 99.7612 70.4389C99.4695 70.9659 99.0585 71.3835 98.5282 71.6918C97.9979 71.9967 97.3781 72.1458 96.6689 72.1392ZM96.6639 70.8466C97.055 70.8466 97.4047 70.7505 97.7129 70.5582C98.0211 70.366 98.2647 70.1075 98.4437 69.7827C98.6227 69.4579 98.7122 69.0949 98.7122 68.6939C98.7122 68.3028 98.6243 67.9465 98.4487 67.625C98.2763 67.3035 98.0377 67.0483 97.7328 66.8594C97.4312 66.6705 97.0865 66.576 96.6987 66.576C96.4037 66.576 96.1303 66.6323 95.8784 66.745C95.6298 66.8577 95.411 67.0135 95.2221 67.2124C95.0332 67.4112 94.8841 67.6399 94.7747 67.8984C94.6686 68.1536 94.6156 68.4238 94.6156 68.7088C94.6156 69.09 94.7034 69.4429 94.8791 69.7678C95.0581 70.0926 95.3017 70.3544 95.6099 70.5533C95.9215 70.7488 96.2728 70.8466 96.6639 70.8466ZM102.358 72L106.802 63.2102V63.1357H101.662V61.8182H108.393V63.1804L103.963 72H102.358ZM117.267 72.1392C116.555 72.1392 115.925 72.0166 115.378 71.7713C114.835 71.526 114.409 71.188 114.1 70.7571C113.792 70.3262 113.64 69.8357 113.643 69.2855C113.64 68.8546 113.728 68.4586 113.907 68.0973C114.089 67.7327 114.336 67.4295 114.647 67.1875C114.959 66.9422 115.307 66.7865 115.691 66.7202V66.6605C115.184 66.5379 114.778 66.2661 114.473 65.8452C114.168 65.4242 114.018 64.9403 114.021 64.3935C114.018 63.8731 114.155 63.4091 114.434 63.0014C114.715 62.5904 115.101 62.2673 115.592 62.032C116.083 61.7966 116.641 61.679 117.267 61.679C117.887 61.679 118.441 61.7983 118.928 62.0369C119.418 62.2723 119.805 62.5954 120.086 63.0064C120.368 63.4141 120.511 63.8764 120.514 64.3935C120.511 64.9403 120.355 65.4242 120.047 65.8452C119.738 66.2661 119.337 66.5379 118.843 66.6605V66.7202C119.225 66.7865 119.568 66.9422 119.873 67.1875C120.181 67.4295 120.426 67.7327 120.608 68.0973C120.794 68.4586 120.888 68.8546 120.892 69.2855C120.888 69.8357 120.733 70.3262 120.424 70.7571C120.116 71.188 119.689 71.526 119.142 71.7713C118.598 72.0166 117.973 72.1392 117.267 72.1392ZM117.267 70.8814C117.688 70.8814 118.053 70.8118 118.361 70.6726C118.669 70.5301 118.908 70.3329 119.077 70.081C119.246 69.8258 119.332 69.5275 119.336 69.1861C119.332 68.8314 119.239 68.5182 119.057 68.2464C118.878 67.9747 118.635 67.7609 118.326 67.6051C118.018 67.4493 117.665 67.3714 117.267 67.3714C116.866 67.3714 116.51 67.4493 116.199 67.6051C115.887 67.7609 115.642 67.9747 115.463 68.2464C115.284 68.5182 115.196 68.8314 115.199 69.1861C115.196 69.5275 115.277 69.8258 115.443 70.081C115.612 70.3329 115.852 70.5301 116.164 70.6726C116.475 70.8118 116.843 70.8814 117.267 70.8814ZM117.267 66.1435C117.605 66.1435 117.905 66.0755 118.167 65.9396C118.429 65.8037 118.635 65.6148 118.784 65.3729C118.936 65.1309 119.014 64.8475 119.017 64.5227C119.014 64.2045 118.938 63.9261 118.789 63.6875C118.643 63.4489 118.439 63.2649 118.177 63.1357C117.915 63.0031 117.612 62.9368 117.267 62.9368C116.916 62.9368 116.608 63.0031 116.343 63.1357C116.081 63.2649 115.877 63.4489 115.731 63.6875C115.585 63.9261 115.514 64.2045 115.517 64.5227C115.514 64.8475 115.587 65.1309 115.736 65.3729C115.885 65.6148 116.091 65.8037 116.353 65.9396C116.618 66.0755 116.923 66.1435 117.267 66.1435ZM126.058 61.679C126.512 61.6823 126.96 61.7652 127.401 61.9276C127.842 62.09 128.239 62.3551 128.594 62.723C128.952 63.0909 129.237 63.5881 129.449 64.2145C129.664 64.8376 129.774 65.6132 129.777 66.5412C129.777 67.4328 129.688 68.2266 129.509 68.9226C129.33 69.6153 129.073 70.2003 128.738 70.6776C128.407 71.1548 128.004 71.5178 127.53 71.7663C127.056 72.0149 126.522 72.1392 125.929 72.1392C125.323 72.1392 124.784 72.0199 124.313 71.7812C123.843 71.5426 123.46 71.2128 123.165 70.7919C122.87 70.3677 122.686 69.8804 122.613 69.3303H124.129C124.229 69.7678 124.431 70.1224 124.736 70.3942C125.044 70.6626 125.442 70.7969 125.929 70.7969C126.675 70.7969 127.257 70.4721 127.674 69.8224C128.092 69.1695 128.302 68.258 128.306 67.0881H128.226C128.054 67.3731 127.838 67.6184 127.58 67.8239C127.325 68.0294 127.038 68.1884 126.72 68.3011C126.401 68.4138 126.062 68.4702 125.7 68.4702C125.114 68.4702 124.58 68.326 124.1 68.0376C123.619 67.7493 123.236 67.3532 122.951 66.8494C122.666 66.3456 122.524 65.7706 122.524 65.1243C122.524 64.4813 122.669 63.898 122.961 63.3743C123.256 62.8506 123.667 62.4363 124.194 62.1314C124.724 61.8232 125.346 61.6723 126.058 61.679ZM126.063 62.9716C125.676 62.9716 125.326 63.0677 125.014 63.2599C124.706 63.4489 124.463 63.7057 124.284 64.0305C124.105 64.352 124.015 64.71 124.015 65.1044C124.015 65.4988 124.101 65.8568 124.274 66.1783C124.449 66.4964 124.688 66.75 124.99 66.9389C125.294 67.1245 125.642 67.2173 126.034 67.2173C126.325 67.2173 126.597 67.161 126.849 67.0483C127.101 66.9356 127.321 66.7798 127.51 66.581C127.699 66.3788 127.847 66.1501 127.953 65.8949C128.059 65.6397 128.112 65.3712 128.112 65.0895C128.112 64.715 128.022 64.367 127.843 64.0455C127.668 63.724 127.426 63.4654 127.117 63.2699C126.809 63.071 126.458 62.9716 126.063 62.9716ZM135.118 72.169C134.332 72.1657 133.661 71.9586 133.104 71.5476C132.548 71.1366 132.122 70.5384 131.827 69.7528C131.532 68.9673 131.384 68.0211 131.384 66.9141C131.384 65.8104 131.532 64.8674 131.827 64.0852C132.125 63.303 132.553 62.7064 133.109 62.2955C133.67 61.8845 134.339 61.679 135.118 61.679C135.897 61.679 136.565 61.8861 137.121 62.3004C137.678 62.7114 138.104 63.308 138.399 64.0902C138.697 64.8691 138.847 65.8104 138.847 66.9141C138.847 68.0244 138.699 68.9723 138.404 69.7578C138.109 70.54 137.683 71.1383 137.126 71.5526C136.57 71.9635 135.9 72.169 135.118 72.169ZM135.118 70.8416C135.807 70.8416 136.346 70.5052 136.734 69.8324C137.125 69.1596 137.32 68.1868 137.32 66.9141C137.32 66.0689 137.231 65.3546 137.052 64.7713C136.876 64.1847 136.623 63.7405 136.291 63.4389C135.963 63.134 135.572 62.9815 135.118 62.9815C134.432 62.9815 133.893 63.3196 133.502 63.9957C133.111 64.6719 132.914 65.6446 132.911 66.9141C132.911 67.7625 132.998 68.4801 133.174 69.0668C133.353 69.6501 133.607 70.0926 133.935 70.3942C134.263 70.6925 134.657 70.8416 135.118 70.8416Z" fill="#555C68"/>
<path opacity="0.9" d="M28.9993 113V105.364H30.4858V113H28.9993ZM29.75 104.185C29.4915 104.185 29.2694 104.099 29.0838 103.927C28.9015 103.751 28.8104 103.542 28.8104 103.3C28.8104 103.055 28.9015 102.846 29.0838 102.674C29.2694 102.498 29.4915 102.411 29.75 102.411C30.0085 102.411 30.2289 102.498 30.4112 102.674C30.5968 102.846 30.6896 103.055 30.6896 103.3C30.6896 103.542 30.5968 103.751 30.4112 103.927C30.2289 104.099 30.0085 104.185 29.75 104.185ZM33.9721 108.466V113H32.4856V105.364H33.9125V106.607H34.0069C34.1826 106.202 34.4577 105.877 34.8322 105.632C35.21 105.387 35.6857 105.264 36.2591 105.264C36.7794 105.264 37.2351 105.374 37.6262 105.592C38.0173 105.808 38.3206 106.129 38.536 106.557C38.7515 106.984 38.8592 107.513 38.8592 108.143V113H37.3727V108.322C37.3727 107.768 37.2285 107.336 36.9402 107.024C36.6518 106.709 36.2557 106.552 35.752 106.552C35.4073 106.552 35.1007 106.626 34.8322 106.776C34.5671 106.925 34.3566 107.143 34.2008 107.432C34.0484 107.717 33.9721 108.062 33.9721 108.466ZM44.487 105.364V106.557H40.1717V105.364H44.487ZM41.3549 113V104.479C41.3549 104.001 41.4593 103.605 41.6681 103.29C41.877 102.972 42.1537 102.735 42.4984 102.58C42.8431 102.42 43.2176 102.341 43.622 102.341C43.9203 102.341 44.1755 102.366 44.3876 102.415C44.5997 102.462 44.7572 102.505 44.8599 102.545L44.5119 103.748C44.4423 103.728 44.3528 103.705 44.2434 103.678C44.1341 103.648 44.0015 103.634 43.8457 103.634C43.4844 103.634 43.2259 103.723 43.0701 103.902C42.9177 104.081 42.8414 104.339 42.8414 104.678V113H41.3549ZM48.9366 113.154C48.2207 113.154 47.5959 112.99 47.0623 112.662C46.5287 112.334 46.1144 111.875 45.8194 111.285C45.5244 110.695 45.377 110.005 45.377 109.217C45.377 108.424 45.5244 107.732 45.8194 107.138C46.1144 106.545 46.5287 106.085 47.0623 105.756C47.5959 105.428 48.2207 105.264 48.9366 105.264C49.6525 105.264 50.2773 105.428 50.8109 105.756C51.3445 106.085 51.7588 106.545 52.0538 107.138C52.3488 107.732 52.4963 108.424 52.4963 109.217C52.4963 110.005 52.3488 110.695 52.0538 111.285C51.7588 111.875 51.3445 112.334 50.8109 112.662C50.2773 112.99 49.6525 113.154 48.9366 113.154ZM48.9416 111.906C49.4056 111.906 49.7901 111.784 50.095 111.538C50.3999 111.293 50.6253 110.967 50.7711 110.559C50.9203 110.151 50.9949 109.702 50.9949 109.212C50.9949 108.724 50.9203 108.277 50.7711 107.869C50.6253 107.458 50.3999 107.129 50.095 106.88C49.7901 106.631 49.4056 106.507 48.9416 106.507C48.4743 106.507 48.0865 106.631 47.7782 106.88C47.4733 107.129 47.2463 107.458 47.0971 107.869C46.9513 108.277 46.8784 108.724 46.8784 109.212C46.8784 109.702 46.9513 110.151 47.0971 110.559C47.2463 110.967 47.4733 111.293 47.7782 111.538C48.0865 111.784 48.4743 111.906 48.9416 111.906ZM60.2855 115.769C59.258 115.769 58.3466 115.628 57.5511 115.347C56.759 115.068 56.0911 114.657 55.5476 114.114C55.004 113.573 54.5914 112.911 54.3097 112.125C54.0279 111.339 53.8871 110.443 53.8871 109.435C53.8871 108.454 54.0296 107.573 54.3146 106.79C54.5997 106.008 55.014 105.342 55.5575 104.792C56.1044 104.238 56.7689 103.816 57.5511 103.524C58.3333 103.232 59.2216 103.087 60.2159 103.087C61.1671 103.087 62.0057 103.236 62.7315 103.534C63.4574 103.832 64.0672 104.242 64.5611 104.762C65.0582 105.282 65.4328 105.879 65.6847 106.552C65.9366 107.225 66.0625 107.936 66.0625 108.685C66.0625 109.208 66.0294 109.72 65.9631 110.221C65.8968 110.718 65.7741 111.169 65.5952 111.573C65.4195 111.974 65.1643 112.296 64.8295 112.538C64.4981 112.776 64.0672 112.901 63.5369 112.911C63.2552 112.92 62.9818 112.887 62.7166 112.811C62.4515 112.735 62.2261 112.612 62.0405 112.443C61.8549 112.271 61.7422 112.052 61.7024 111.787H61.6428C61.5632 111.982 61.4306 112.165 61.245 112.334C61.0594 112.5 60.8224 112.632 60.5341 112.732C60.2491 112.828 59.9176 112.867 59.5398 112.851C59.1222 112.834 58.746 112.74 58.4112 112.567C58.0765 112.395 57.7898 112.156 57.5511 111.852C57.3158 111.547 57.1352 111.185 57.0092 110.768C56.8833 110.35 56.8203 109.886 56.8203 109.376C56.8203 108.885 56.8916 108.446 57.0341 108.058C57.1766 107.667 57.3705 107.331 57.6158 107.049C57.8643 106.764 58.1494 106.539 58.4709 106.373C58.7924 106.207 59.1321 106.103 59.4901 106.06C59.8381 106.02 60.1579 106.03 60.4496 106.089C60.7412 106.149 60.9832 106.24 61.1754 106.363C61.371 106.486 61.4936 106.62 61.5433 106.766H61.608V106.209H62.831V110.822C62.831 111.084 62.8989 111.306 63.0348 111.489C63.174 111.671 63.3712 111.762 63.6264 111.762C63.928 111.762 64.1634 111.651 64.3324 111.429C64.5047 111.207 64.6257 110.866 64.6953 110.405C64.7682 109.944 64.8047 109.354 64.8047 108.635C64.8047 108.131 64.7367 107.657 64.6009 107.213C64.4683 106.766 64.2711 106.361 64.0092 106C63.7507 105.635 63.4325 105.322 63.0547 105.06C62.6768 104.799 62.246 104.596 61.7621 104.454C61.2815 104.311 60.7495 104.24 60.1662 104.24C59.3741 104.24 58.6697 104.363 58.0533 104.608C57.4368 104.85 56.9164 105.2 56.4922 105.657C56.0713 106.114 55.7514 106.663 55.5327 107.303C55.3172 107.939 55.2095 108.653 55.2095 109.445C55.2095 110.271 55.3205 111.003 55.5426 111.643C55.7647 112.279 56.0928 112.816 56.527 113.254C56.9612 113.691 57.4981 114.022 58.1378 114.248C58.7775 114.477 59.5149 114.591 60.3501 114.591C60.7214 114.591 61.0859 114.558 61.4439 114.491C61.8018 114.429 62.12 114.356 62.3984 114.273C62.6802 114.193 62.8906 114.129 63.0298 114.079L63.3778 115.168C63.1723 115.264 62.8989 115.358 62.5575 115.451C62.2195 115.544 61.8516 115.62 61.4538 115.68C61.0594 115.739 60.67 115.769 60.2855 115.769ZM59.8281 111.633C60.259 111.633 60.6054 111.547 60.8672 111.374C61.1323 111.202 61.3229 110.945 61.4389 110.604C61.5582 110.259 61.6179 109.828 61.6179 109.311C61.6146 108.807 61.55 108.406 61.424 108.108C61.3014 107.806 61.1091 107.591 60.8473 107.462C60.5888 107.329 60.2557 107.263 59.848 107.263C59.4735 107.263 59.1536 107.354 58.8885 107.536C58.6267 107.719 58.4261 107.965 58.2869 108.277C58.151 108.589 58.0814 108.935 58.0781 109.316C58.0814 109.717 58.1378 110.095 58.2472 110.45C58.3598 110.801 58.5421 111.086 58.794 111.305C59.0492 111.523 59.3939 111.633 59.8281 111.633ZM69.9267 113.169C69.4428 113.169 69.0053 113.08 68.6142 112.901C68.2231 112.718 67.9132 112.455 67.6845 112.11C67.4591 111.765 67.3464 111.343 67.3464 110.842C67.3464 110.411 67.4293 110.057 67.595 109.778C67.7607 109.5 67.9844 109.28 68.2662 109.117C68.5479 108.955 68.8627 108.832 69.2108 108.749C69.5588 108.666 69.9134 108.603 70.2747 108.56C70.7321 108.507 71.1033 108.464 71.3883 108.431C71.6734 108.395 71.8805 108.337 72.0098 108.257C72.139 108.178 72.2037 108.048 72.2037 107.869V107.835C72.2037 107.4 72.081 107.064 71.8358 106.825C71.5938 106.587 71.2325 106.467 70.752 106.467C70.2515 106.467 69.8571 106.578 69.5687 106.8C69.2837 107.019 69.0865 107.263 68.9771 107.531L67.5801 107.213C67.7458 106.749 67.9877 106.375 68.3059 106.089C68.6274 105.801 68.997 105.592 69.4146 105.463C69.8322 105.33 70.2714 105.264 70.7321 105.264C71.037 105.264 71.3601 105.301 71.7015 105.374C72.0462 105.443 72.3677 105.572 72.666 105.761C72.9676 105.95 73.2145 106.22 73.4068 106.572C73.599 106.92 73.6951 107.372 73.6951 107.929V113H72.2434V111.956H72.1838C72.0877 112.148 71.9435 112.337 71.7512 112.523C71.559 112.708 71.3121 112.862 71.0105 112.985C70.7089 113.108 70.3476 113.169 69.9267 113.169ZM70.2498 111.976C70.6608 111.976 71.0121 111.895 71.3038 111.732C71.5988 111.57 71.8225 111.358 71.975 111.096C72.1307 110.831 72.2086 110.547 72.2086 110.246V109.261C72.1556 109.314 72.0529 109.364 71.9004 109.411C71.7512 109.454 71.5806 109.492 71.3883 109.525C71.1961 109.555 71.0088 109.583 70.8265 109.609C70.6442 109.633 70.4918 109.652 70.3691 109.669C70.0808 109.705 69.8173 109.767 69.5787 109.853C69.3433 109.939 69.1544 110.063 69.0119 110.226C68.8727 110.385 68.8031 110.597 68.8031 110.862C68.8031 111.23 68.939 111.509 69.2108 111.697C69.4825 111.883 69.8289 111.976 70.2498 111.976ZM78.8768 116.023C78.2702 116.023 77.7482 115.943 77.3107 115.784C76.8765 115.625 76.5219 115.415 76.2468 115.153C75.9717 114.891 75.7662 114.604 75.6303 114.293L76.908 113.766C76.9975 113.911 77.1168 114.066 77.266 114.228C77.4184 114.394 77.6239 114.535 77.8825 114.651C78.1443 114.767 78.4807 114.825 78.8917 114.825C79.4551 114.825 79.9208 114.687 80.2887 114.412C80.6566 114.14 80.8406 113.706 80.8406 113.109V111.608H80.7461C80.6566 111.77 80.5273 111.951 80.3583 112.15C80.1926 112.349 79.9639 112.521 79.6722 112.667C79.3806 112.813 79.0011 112.886 78.5337 112.886C77.9305 112.886 77.387 112.745 76.9031 112.463C76.4225 112.178 76.0413 111.759 75.7596 111.205C75.4812 110.648 75.342 109.964 75.342 109.152C75.342 108.34 75.4795 107.644 75.7546 107.064C76.033 106.484 76.4142 106.04 76.8981 105.732C77.382 105.42 77.9305 105.264 78.5437 105.264C79.0176 105.264 79.4004 105.344 79.6921 105.503C79.9838 105.659 80.2108 105.841 80.3732 106.05C80.5389 106.259 80.6665 106.442 80.756 106.602H80.8654V105.364H82.3221V113.169C82.3221 113.825 82.1696 114.364 81.8647 114.785C81.5598 115.206 81.1471 115.517 80.6268 115.719C80.1097 115.922 79.5264 116.023 78.8768 116.023ZM78.8619 111.653C79.2894 111.653 79.6507 111.553 79.9457 111.354C80.244 111.152 80.4693 110.864 80.6218 110.489C80.7776 110.112 80.8555 109.659 80.8555 109.132C80.8555 108.618 80.7792 108.166 80.6268 107.775C80.4743 107.384 80.2506 107.079 79.9556 106.86C79.6606 106.638 79.296 106.527 78.8619 106.527C78.4144 106.527 78.0415 106.643 77.7433 106.875C77.445 107.104 77.2196 107.415 77.0671 107.81C76.918 108.204 76.8434 108.645 76.8434 109.132C76.8434 109.633 76.9196 110.072 77.0721 110.45C77.2246 110.827 77.4499 111.122 77.7482 111.335C78.0498 111.547 78.421 111.653 78.8619 111.653ZM87.6069 113.154C86.8545 113.154 86.2066 112.993 85.663 112.672C85.1228 112.347 84.7051 111.891 84.4102 111.305C84.1185 110.715 83.9727 110.024 83.9727 109.232C83.9727 108.449 84.1185 107.76 84.4102 107.163C84.7051 106.567 85.1161 106.101 85.6431 105.766C86.1734 105.432 86.7932 105.264 87.5025 105.264C87.9334 105.264 88.351 105.335 88.7553 105.478C89.1597 105.621 89.5226 105.844 89.8441 106.149C90.1656 106.454 90.4192 106.85 90.6048 107.337C90.7904 107.821 90.8832 108.41 90.8832 109.102V109.629H84.8129V108.516H89.4265C89.4265 108.125 89.3469 107.778 89.1879 107.477C89.0288 107.172 88.805 106.931 88.5167 106.756C88.2317 106.58 87.8969 106.492 87.5124 106.492C87.0948 106.492 86.7302 106.595 86.4187 106.8C86.1104 107.003 85.8718 107.268 85.7028 107.596C85.5371 107.921 85.4542 108.274 85.4542 108.655V109.525C85.4542 110.035 85.5437 110.469 85.7227 110.827C85.9049 111.185 86.1585 111.459 86.4833 111.648C86.8081 111.833 87.1876 111.926 87.6218 111.926C87.9035 111.926 88.1604 111.886 88.3924 111.807C88.6244 111.724 88.8249 111.601 88.994 111.439C89.163 111.277 89.2923 111.076 89.3817 110.837L90.7887 111.091C90.676 111.505 90.4738 111.868 90.1822 112.18C89.8938 112.488 89.5309 112.728 89.0934 112.901C88.6592 113.07 88.1637 113.154 87.6069 113.154ZM94.019 108.466V113H92.5325V105.364H93.9593V106.607H94.0538C94.2295 106.202 94.5046 105.877 94.8791 105.632C95.2569 105.387 95.7325 105.264 96.3059 105.264C96.8263 105.264 97.282 105.374 97.6731 105.592C98.0642 105.808 98.3675 106.129 98.5829 106.557C98.7984 106.984 98.9061 107.513 98.9061 108.143V113H97.4196V108.322C97.4196 107.768 97.2754 107.336 96.987 107.024C96.6987 106.709 96.3026 106.552 95.7988 106.552C95.4541 106.552 95.1475 106.626 94.8791 106.776C94.6139 106.925 94.4035 107.143 94.2477 107.432C94.0952 107.717 94.019 108.062 94.019 108.466ZM104.116 113.154C103.377 113.154 102.741 112.987 102.207 112.652C101.677 112.314 101.269 111.848 100.984 111.255C100.699 110.662 100.557 109.982 100.557 109.217C100.557 108.441 100.702 107.757 100.994 107.163C101.286 106.567 101.697 106.101 102.227 105.766C102.757 105.432 103.382 105.264 104.101 105.264C104.681 105.264 105.198 105.372 105.653 105.587C106.107 105.799 106.473 106.098 106.751 106.482C107.033 106.867 107.2 107.316 107.253 107.83H105.807C105.727 107.472 105.545 107.163 105.26 106.905C104.978 106.646 104.6 106.517 104.126 106.517C103.712 106.517 103.349 106.626 103.037 106.845C102.729 107.061 102.489 107.369 102.317 107.77C102.144 108.168 102.058 108.638 102.058 109.182C102.058 109.739 102.143 110.219 102.312 110.624C102.481 111.028 102.719 111.341 103.028 111.563C103.339 111.785 103.705 111.896 104.126 111.896C104.408 111.896 104.663 111.845 104.892 111.742C105.124 111.636 105.318 111.485 105.474 111.29C105.633 111.094 105.744 110.859 105.807 110.584H107.253C107.2 111.078 107.04 111.518 106.771 111.906C106.503 112.294 106.143 112.599 105.692 112.821C105.245 113.043 104.72 113.154 104.116 113.154ZM109.783 115.864C109.561 115.864 109.358 115.845 109.176 115.809C108.994 115.776 108.858 115.739 108.768 115.7L109.126 114.482C109.398 114.554 109.64 114.586 109.852 114.576C110.064 114.566 110.252 114.487 110.414 114.337C110.58 114.188 110.726 113.945 110.852 113.607L111.036 113.099L108.241 105.364H109.832L111.766 111.29H111.846L113.78 105.364H115.376L112.229 114.019C112.083 114.417 111.897 114.753 111.672 115.028C111.446 115.307 111.178 115.516 110.866 115.655C110.555 115.794 110.194 115.864 109.783 115.864ZM117.274 113.094C117.002 113.094 116.768 112.998 116.573 112.806C116.377 112.611 116.279 112.375 116.279 112.1C116.279 111.828 116.377 111.596 116.573 111.404C116.768 111.209 117.002 111.111 117.274 111.111C117.545 111.111 117.779 111.209 117.975 111.404C118.17 111.596 118.268 111.828 118.268 112.1C118.268 112.282 118.222 112.45 118.129 112.602C118.039 112.751 117.92 112.871 117.771 112.96C117.622 113.05 117.456 113.094 117.274 113.094ZM123.476 113.154C122.737 113.154 122.1 112.987 121.567 112.652C121.036 112.314 120.629 111.848 120.344 111.255C120.059 110.662 119.916 109.982 119.916 109.217C119.916 108.441 120.062 107.757 120.354 107.163C120.645 106.567 121.056 106.101 121.586 105.766C122.117 105.432 122.742 105.264 123.461 105.264C124.041 105.264 124.558 105.372 125.012 105.587C125.466 105.799 125.832 106.098 126.111 106.482C126.392 106.867 126.56 107.316 126.613 107.83H125.166C125.086 107.472 124.904 107.163 124.619 106.905C124.337 106.646 123.96 106.517 123.486 106.517C123.071 106.517 122.708 106.626 122.397 106.845C122.089 107.061 121.848 107.369 121.676 107.77C121.504 108.168 121.417 108.638 121.417 109.182C121.417 109.739 121.502 110.219 121.671 110.624C121.84 111.028 122.079 111.341 122.387 111.563C122.698 111.785 123.065 111.896 123.486 111.896C123.767 111.896 124.023 111.845 124.251 111.742C124.483 111.636 124.677 111.485 124.833 111.29C124.992 111.094 125.103 110.859 125.166 110.584H126.613C126.56 111.078 126.399 111.518 126.131 111.906C125.862 112.294 125.502 112.599 125.052 112.821C124.604 113.043 124.079 113.154 123.476 113.154ZM131.419 113.154C130.703 113.154 130.078 112.99 129.545 112.662C129.011 112.334 128.597 111.875 128.302 111.285C128.007 110.695 127.859 110.005 127.859 109.217C127.859 108.424 128.007 107.732 128.302 107.138C128.597 106.545 129.011 106.085 129.545 105.756C130.078 105.428 130.703 105.264 131.419 105.264C132.135 105.264 132.76 105.428 133.293 105.756C133.827 106.085 134.241 106.545 134.536 107.138C134.831 107.732 134.979 108.424 134.979 109.217C134.979 110.005 134.831 110.695 134.536 111.285C134.241 111.875 133.827 112.334 133.293 112.662C132.76 112.99 132.135 113.154 131.419 113.154ZM131.424 111.906C131.888 111.906 132.272 111.784 132.577 111.538C132.882 111.293 133.108 110.967 133.254 110.559C133.403 110.151 133.477 109.702 133.477 109.212C133.477 108.724 133.403 108.277 133.254 107.869C133.108 107.458 132.882 107.129 132.577 106.88C132.272 106.631 131.888 106.507 131.424 106.507C130.957 106.507 130.569 106.631 130.261 106.88C129.956 107.129 129.729 107.458 129.58 107.869C129.434 108.277 129.361 108.724 129.361 109.212C129.361 109.702 129.434 110.151 129.58 110.559C129.729 110.967 129.956 111.293 130.261 111.538C130.569 111.784 130.957 111.906 131.424 111.906ZM136.638 113V105.364H138.065V106.607H138.159C138.318 106.186 138.579 105.857 138.94 105.622C139.301 105.384 139.734 105.264 140.237 105.264C140.748 105.264 141.175 105.384 141.52 105.622C141.868 105.861 142.125 106.189 142.291 106.607H142.37C142.552 106.199 142.843 105.874 143.24 105.632C143.638 105.387 144.112 105.264 144.662 105.264C145.355 105.264 145.92 105.481 146.357 105.915C146.798 106.35 147.019 107.004 147.019 107.879V113H145.532V108.018C145.532 107.501 145.391 107.127 145.11 106.895C144.828 106.663 144.491 106.547 144.1 106.547C143.616 106.547 143.24 106.696 142.972 106.994C142.703 107.289 142.569 107.669 142.569 108.133V113H141.088V107.924C141.088 107.51 140.958 107.177 140.7 106.925C140.441 106.673 140.105 106.547 139.691 106.547C139.409 106.547 139.149 106.621 138.91 106.771C138.675 106.916 138.484 107.12 138.338 107.382C138.196 107.644 138.124 107.947 138.124 108.292V113H136.638Z" fill="#555C68"/>
<path d="M13.332 102.667H2.66536C1.93203 102.667 1.3387 103.267 1.3387 104L1.33203 112C1.33203 112.733 1.93203 113.333 2.66536 113.333H13.332C14.0654 113.333 14.6654 112.733 14.6654 112V104C14.6654 103.267 14.0654 102.667 13.332 102.667ZM13.332 105.333L7.9987 108.667L2.66536 105.333V104L7.9987 107.333L13.332 104V105.333Z" fill="#101C26"/>
</svg>
