<svg width="34" height="35" viewBox="0 0 34 35" fill="none" xmlns="http://www.w3.org/2000/svg">
<path d="M15.8748 1.52187C16.2614 0.477131 17.7391 0.477134 18.1257 1.52188L21.9405 11.8313C22.062 12.1597 22.321 12.4187 22.6495 12.5402L32.9588 16.355C34.0036 16.7416 34.0036 18.2193 32.9588 18.6059L22.6495 22.4207C22.321 22.5422 22.062 22.8012 21.9405 23.1297L18.1257 33.4391C17.7391 34.4838 16.2614 34.4838 15.8748 33.4391L12.06 23.1297C11.9385 22.8012 11.6795 22.5422 11.351 22.4207L1.04165 18.6059C-0.00309336 18.2193 -0.00309074 16.7416 1.04165 16.355L11.351 12.5402C11.6795 12.4187 11.9385 12.1597 12.06 11.8313L15.8748 1.52187Z" fill="#F0E714"/>
</svg>
